<svg width="158" height="52" viewBox="0 0 158 52" fill="none" xmlns="http://www.w3.org/2000/svg">
<g clip-path="url(#clip0_1_1904)">
<path d="M14.0238 0.952393C11.2502 0.952393 8.5388 1.77487 6.2326 3.31583C3.9264 4.85678 2.12893 7.047 1.0675 9.60952C0.00607628 12.172 -0.271642 14.9917 0.26947 17.7121C0.810581 20.4325 2.14622 22.9313 4.10748 24.8925C6.06875 26.8538 8.56755 28.1894 11.2879 28.7305C14.0082 29.2716 16.828 28.9939 19.3905 27.9325C21.953 26.8711 24.1432 25.0736 25.6842 22.7674C27.2251 20.4612 28.0476 17.7498 28.0476 14.9762C28.0456 11.2575 26.5675 7.69162 23.9379 5.06208C21.3084 2.43254 17.7425 0.954397 14.0238 0.952393ZM14.0238 27.6907C11.5091 27.6907 9.05089 26.945 6.96 25.5479C4.8691 24.1508 3.23945 22.1651 2.27712 19.8418C1.31479 17.5186 1.063 14.9621 1.55359 12.4957C2.04418 10.0293 3.25512 7.76382 5.03328 5.98567C6.81144 4.20751 9.07695 2.99657 11.5433 2.50597C14.0097 2.01538 16.5662 2.26717 18.8894 3.2295C21.2127 4.19184 23.1985 5.82149 24.5955 7.91238C25.9926 10.0033 26.7383 12.4615 26.7383 14.9762C26.7349 18.3472 25.3942 21.5792 23.0105 23.9629C20.6268 26.3466 17.3948 27.6873 14.0238 27.6907ZM19.8137 6.21859H18.8536V11.0193H9.22313V6.21859H8.2339C6.78518 7.17459 5.59625 8.47505 4.77364 10.0035C3.95103 11.5319 3.52044 13.2405 3.52044 14.9762C3.52044 16.7119 3.95103 18.4205 4.77364 19.9489C5.59625 21.4773 6.78518 22.7778 8.2339 23.7338H9.22313V18.9331H18.8536V23.7338H19.8137C21.2624 22.7778 22.4514 21.4773 23.274 19.9489C24.0966 18.4205 24.5272 16.7119 24.5272 14.9762C24.5272 13.2405 24.0966 11.5319 23.274 10.0035C22.4514 8.47505 21.2624 7.17459 19.8137 6.21859ZM7.88476 21.8426C6.91495 20.9808 6.1387 19.9233 5.60713 18.7398C5.07556 17.5563 4.80073 16.2736 4.80073 14.9762C4.80073 13.6788 5.07556 12.3961 5.60713 11.2126C6.1387 10.0291 6.91495 8.97159 7.88476 8.10977V21.8426ZM18.8536 17.5947H9.22313V12.3285H18.8536V17.5947ZM20.1629 21.8135V18.904V11.0193V8.10977C21.1243 8.97362 21.8931 10.0301 22.4195 11.2106C22.9458 12.3911 23.2178 13.6691 23.2178 14.9616C23.2178 16.2541 22.9458 17.5322 22.4195 18.7127C21.8931 19.8932 21.1243 20.9497 20.1629 21.8135Z" fill="#666666"/>
<path fill-rule="evenodd" clip-rule="evenodd" d="M66.9354 14.5384C67.8902 14.1691 68.7095 13.5169 69.2834 12.6691C69.8573 11.8213 70.1584 10.8184 70.1465 9.7947C70.1465 5.52542 67.1178 3.40902 62.958 3.40902H52.0476V26.6164H63.9067C67.5557 26.6164 71.1317 24.0621 71.1317 20.1577C71.1317 15.5236 66.9354 14.5748 66.9354 14.5384ZM57.74 8.22565H61.9728C62.2649 8.20803 62.5574 8.25259 62.831 8.35639C63.1046 8.46018 63.3531 8.62085 63.56 8.82777C63.767 9.0347 63.9276 9.28317 64.0314 9.55679C64.1352 9.8304 64.1798 10.1229 64.1622 10.415C64.1565 10.7069 64.0918 10.9947 63.9719 11.2609C63.852 11.5272 63.6795 11.7664 63.4647 11.9641C63.2499 12.1619 62.9972 12.3141 62.722 12.4116C62.4468 12.5091 62.1547 12.5499 61.8633 12.5314H57.7035L57.74 8.22565ZM62.0093 21.7633H57.7765V17.2021H61.8998C63.9797 17.2021 64.9649 18.1143 64.9649 19.4644C64.9649 21.143 63.7243 21.7633 62.0093 21.7633ZM83.6841 2.82519C76.97 2.82519 73.0291 8.18916 73.0291 14.9762C73.0291 21.7998 76.97 27.1273 83.6841 27.1273C90.4347 27.1273 94.3391 21.7998 94.3391 14.9762C94.3391 8.18916 90.4347 2.82519 83.6841 2.82519ZM83.6841 21.5808C80.4 21.5808 78.758 18.6252 78.758 14.9762C78.758 11.3273 80.4 8.4081 83.6841 8.4081C86.9682 8.4081 88.6467 11.3638 88.6467 14.9762C88.6467 18.6617 86.9682 21.5808 83.6841 21.5808ZM106.709 12.5314L105.906 12.349C103.936 11.9476 102.367 11.4367 102.367 10.0136C102.367 8.48108 103.863 7.86075 105.176 7.86075C106.073 7.87484 106.956 8.07325 107.772 8.44364C108.588 8.81402 109.32 9.34845 109.92 10.0136L113.533 6.43766C111.891 4.57669 109.227 2.7887 105.067 2.7887C100.177 2.7887 96.4555 5.52542 96.4555 10.0866C96.4555 14.2464 99.4476 16.2899 103.097 17.0561L103.899 17.2386C106.928 17.8589 108.059 18.3333 108.059 19.7929C108.059 21.1795 106.819 22.0917 104.921 22.0917C102.659 22.0917 100.615 21.1065 99.0462 19.0996L95.3608 22.7485C97.4042 25.1933 99.995 27.0908 104.994 27.0908C109.336 27.0908 113.97 24.6095 113.97 19.5374C114.043 14.2464 110.03 13.2247 106.709 12.5314ZM126.961 21.5808C124.407 21.5808 121.743 19.4644 121.743 14.8303C121.743 10.7069 124.224 8.4081 126.815 8.4081C128.858 8.4081 130.062 9.35683 131.011 10.9989L135.682 7.89724C133.346 4.35775 130.573 2.86168 126.742 2.86168C119.736 2.86168 115.941 8.29863 115.941 14.8668C115.941 21.7633 120.137 27.1638 126.669 27.1638C131.267 27.1638 133.456 25.5582 135.828 22.1282L131.121 18.9536C130.172 20.4862 129.15 21.5808 126.961 21.5808ZM151.263 3.40902V11.9476H144.22V3.40902H138.127V26.6164H144.22V17.4575H151.263V26.6164H157.357V3.40902H151.263Z" fill="#E20015"/>
<path d="M2 49.1021H3.17847V37.626H2V49.1021Z" fill="black"/>
<path d="M6.09959 49.1021H7.27806V43.966C7.27806 42.6017 8.04478 41.7189 9.23745 41.7189C10.3307 41.7189 10.8135 42.3609 10.8135 43.8054V49.1021H11.992V43.9018C11.992 41.7349 11.1258 40.5633 9.53561 40.5633C8.48493 40.5633 7.73241 41.0448 7.27806 41.9917V40.7077H6.09959V49.1021Z" fill="black"/>
<path d="M14.6409 49.1021H15.8193V43.966C15.8193 42.6017 16.586 41.7189 17.7787 41.7189C18.872 41.7189 19.3547 42.3609 19.3547 43.8054V49.1021H20.5332V43.9018C20.5332 41.7349 19.6671 40.5633 18.0769 40.5633C17.0262 40.5633 16.2737 41.0448 15.8193 41.9917V40.7077H14.6409V49.1021Z" fill="black"/>
<path d="M26.1354 40.5633C24.0624 40.5633 22.6 42.377 22.6 44.9129C22.6 47.4168 24.0766 49.2466 26.0928 49.2466C28.1516 49.2466 29.614 47.4329 29.614 44.8969C29.614 42.393 28.1516 40.5633 26.1354 40.5633ZM26.1354 41.6707C27.4984 41.6707 28.393 42.9548 28.393 44.9129C28.393 46.8871 27.4984 48.1391 26.0928 48.1391C24.7014 48.1391 23.821 46.9032 23.821 44.929C23.821 42.8906 24.7014 41.6707 26.1354 41.6707Z" fill="black"/>
<path d="M33.0472 49.1021H34.4386L36.9375 40.7077H35.7165L33.7713 47.7539L31.7835 40.7077H30.5056L33.0472 49.1021Z" fill="black"/>
<path d="M44.5371 48.107C43.8981 48.0909 43.6993 47.8983 43.6993 47.3044V43.5647C43.6993 41.6226 42.7622 40.5633 41.0584 40.5633C39.9367 40.5633 39.1274 40.9324 38.2329 41.8473L38.9287 42.714C39.6954 41.9596 40.2775 41.6707 41.0584 41.6707C42.0665 41.6707 42.5209 42.2646 42.5209 43.5647V44.0944C41.243 44.1425 40.7035 44.2067 40.0077 44.4154C38.6873 44.8166 37.9632 45.6994 37.9632 46.9353C37.9632 48.2835 38.9287 49.2466 40.3059 49.2466C41.2288 49.2466 41.9387 48.8453 42.5919 47.9625C42.819 48.765 43.3302 49.1663 44.1253 49.1663C44.2389 49.1663 44.3809 49.1663 44.5371 49.1502V48.107ZM42.5209 46.3254C42.5209 47.4007 41.6832 48.1712 40.5047 48.1712C39.6244 48.1712 39.1416 47.7057 39.1416 46.8711C39.1416 45.6673 40.1355 45.1376 42.5209 45.0413V46.3254Z" fill="black"/>
<path d="M51.2938 46.6624C50.6974 47.7539 50.1437 48.1391 49.1924 48.1391C47.7583 48.1391 46.949 46.9834 46.949 44.945C46.949 42.8745 47.7725 41.6707 49.164 41.6707C50.0159 41.6707 50.4844 42.0239 51.095 43.0992L52.0321 42.393C51.3363 41.1411 50.4276 40.5633 49.1498 40.5633C47.1052 40.5633 45.7279 42.3128 45.7279 44.9129C45.7279 47.465 47.1478 49.2466 49.1924 49.2466C50.527 49.2466 51.4925 48.6206 52.2025 47.3044L51.2938 46.6624Z" fill="black"/>
<path d="M54.0201 49.1021H55.1986V40.7077H54.0201V49.1021ZM54.588 37.3692C54.1621 37.3692 53.8071 37.7705 53.8071 38.252C53.8071 38.7335 54.1621 39.1348 54.588 39.1348C55.014 39.1348 55.3689 38.7335 55.3689 38.252C55.3689 37.7705 55.014 37.3692 54.588 37.3692Z" fill="black"/>
<path d="M60.9105 40.5633C58.8376 40.5633 57.3751 42.377 57.3751 44.9129C57.3751 47.4168 58.8518 49.2466 60.868 49.2466C62.9267 49.2466 64.3892 47.4329 64.3892 44.8969C64.3892 42.393 62.9267 40.5633 60.9105 40.5633ZM60.9105 41.6707C62.2736 41.6707 63.1681 42.9548 63.1681 44.9129C63.1681 46.8871 62.2736 48.1391 60.868 48.1391C59.4765 48.1391 58.5962 46.9032 58.5962 44.929C58.5962 42.8906 59.4765 41.6707 60.9105 41.6707ZM60.5414 39.6163H61.3507L62.9125 37.0161H61.3649L60.5414 39.6163Z" fill="black"/>
<path d="M66.5263 49.1021H67.7047V43.966C67.7047 42.6017 68.4715 41.7189 69.6641 41.7189C70.7574 41.7189 71.2402 42.3609 71.2402 43.8054V49.1021H72.4186V43.9018C72.4186 41.7349 71.5525 40.5633 69.9623 40.5633C68.9116 40.5633 68.1591 41.0448 67.7047 41.9917V40.7077H66.5263V49.1021Z" fill="black"/>
<path d="M79.3382 52.0233H80.5166V47.7539C81.0562 48.7329 81.9081 49.2466 82.973 49.2466C84.904 49.2466 86.1534 47.5131 86.1534 44.8648C86.1534 42.2646 84.8898 40.5633 82.9872 40.5633C81.9365 40.5633 81.0846 41.0929 80.5166 42.0881V40.7077H79.3382V52.0233ZM82.7884 41.6707C84.1372 41.6707 84.9324 42.8906 84.9324 44.945C84.9324 47.0797 84.2082 48.1391 82.7742 48.1391C81.3118 48.1391 80.474 46.9674 80.474 44.9129C80.474 42.8906 81.3401 41.6707 82.7884 41.6707Z" fill="black"/>
<path d="M94.2871 48.107C93.6482 48.0909 93.4494 47.8983 93.4494 47.3044V43.5647C93.4494 41.6226 92.5123 40.5633 90.8085 40.5633C89.6868 40.5633 88.8775 40.9324 87.983 41.8473L88.6788 42.714C89.4455 41.9596 90.0276 41.6707 90.8085 41.6707C91.8166 41.6707 92.271 42.2646 92.271 43.5647V44.0944C90.9931 44.1425 90.4536 44.2067 89.7578 44.4154C88.4374 44.8166 87.7133 45.6994 87.7133 46.9353C87.7133 48.2835 88.6788 49.2466 90.056 49.2466C90.9789 49.2466 91.6888 48.8453 92.342 47.9625C92.5691 48.765 93.0803 49.1663 93.8754 49.1663C93.989 49.1663 94.131 49.1663 94.2871 49.1502V48.107ZM92.271 46.3254C92.271 47.4007 91.4333 48.1712 90.2548 48.1712C89.3745 48.1712 88.8917 47.7057 88.8917 46.8711C88.8917 45.6673 89.8856 45.1376 92.271 45.0413V46.3254Z" fill="black"/>
<path d="M96.0602 49.1021H97.2387V44.4956C97.2387 42.8103 97.9344 41.767 99.0844 41.767C99.4252 41.767 99.624 41.8312 99.9506 42.0239L100.433 40.9003C100.036 40.6596 99.6808 40.5633 99.2264 40.5633C98.3603 40.5633 97.7214 41.0448 97.2387 42.056V40.7077H96.0602V49.1021Z" fill="black"/>
<path d="M107.862 48.107C107.223 48.0909 107.024 47.8983 107.024 47.3044V43.5647C107.024 41.6226 106.087 40.5633 104.383 40.5633C103.261 40.5633 102.452 40.9324 101.558 41.8473L102.253 42.714C103.02 41.9596 103.602 41.6707 104.383 41.6707C105.391 41.6707 105.845 42.2646 105.845 43.5647V44.0944C104.568 44.1425 104.028 44.2067 103.332 44.4154C102.012 44.8166 101.288 45.6994 101.288 46.9353C101.288 48.2835 102.253 49.2466 103.631 49.2466C104.553 49.2466 105.263 48.8453 105.916 47.9625C106.144 48.765 106.655 49.1663 107.45 49.1663C107.563 49.1663 107.705 49.1663 107.862 49.1502V48.107ZM105.845 46.3254C105.845 47.4007 105.008 48.1712 103.829 48.1712C102.949 48.1712 102.466 47.7057 102.466 46.8711C102.466 45.6673 103.46 45.1376 105.845 45.0413V46.3254Z" fill="black"/>
<path d="M113.053 41.8152H114.189V47.1921C114.189 48.4601 114.942 49.2466 116.149 49.2466C116.759 49.2466 117.185 49.086 117.682 48.6527L117.228 47.7378C116.887 48.0267 116.603 48.1391 116.22 48.1391C115.638 48.1391 115.368 47.7539 115.368 46.9353V41.8152H117.242V40.7077H115.368V38.2038L114.189 38.5249V40.7077H113.053V41.8152Z" fill="black"/>
<path d="M123.911 49.1021H125.09V40.7077H123.911V45.8439C123.911 47.2081 123.145 48.0909 121.952 48.0909C120.901 48.0909 120.433 47.4489 120.433 46.0044V40.7077H119.254V45.9081C119.254 48.0749 120.092 49.2466 121.654 49.2466C122.704 49.2466 123.457 48.765 123.911 47.8181V49.1021Z" fill="black"/>
<path d="M133.546 49.1021H134.937L137.436 40.7077H136.215L134.27 47.7539L132.282 40.7077H131.004L133.546 49.1021Z" fill="black"/>
<path d="M139.114 49.1021H140.292V40.7077H139.114V49.1021ZM139.682 37.3692C139.256 37.3692 138.901 37.7705 138.901 38.252C138.901 38.7335 139.256 39.1348 139.682 39.1348C140.108 39.1348 140.463 38.7335 140.463 38.252C140.463 37.7705 140.108 37.3692 139.682 37.3692Z" fill="black"/>
<path d="M148.106 49.1021H149.284V37.0161H148.106V42.0881C147.538 41.0929 146.686 40.5633 145.635 40.5633C143.733 40.5633 142.469 42.2646 142.469 44.8648C142.469 47.5292 143.718 49.2466 145.649 49.2466C146.714 49.2466 147.552 48.7329 148.106 47.7539V49.1021ZM145.862 41.6707C147.282 41.6707 148.148 42.9066 148.148 44.9129C148.148 46.9674 147.311 48.1391 145.82 48.1391C144.4 48.1391 143.69 47.0637 143.69 44.945C143.69 42.8585 144.471 41.6707 145.862 41.6707Z" fill="black"/>
<path d="M158 48.107C157.361 48.0909 157.162 47.8983 157.162 47.3044V43.5647C157.162 41.6226 156.225 40.5633 154.521 40.5633C153.4 40.5633 152.59 40.9324 151.696 41.8473L152.392 42.714C153.158 41.9596 153.74 41.6707 154.521 41.6707C155.529 41.6707 155.984 42.2646 155.984 43.5647V44.0944C154.706 44.1425 154.166 44.2067 153.471 44.4154C152.15 44.8166 151.426 45.6994 151.426 46.9353C151.426 48.2835 152.392 49.2466 153.769 49.2466C154.692 49.2466 155.402 48.8453 156.055 47.9625C156.282 48.765 156.793 49.1663 157.588 49.1663C157.702 49.1663 157.844 49.1663 158 49.1502V48.107ZM155.984 46.3254C155.984 47.4007 155.146 48.1712 153.968 48.1712C153.087 48.1712 152.605 47.7057 152.605 46.8711C152.605 45.6673 153.598 45.1376 155.984 45.0413V46.3254Z" fill="black"/>
</g>
<defs>
<clipPath id="clip0_1_1904">
<rect width="158" height="52" fill="white"/>
</clipPath>
</defs>
</svg>
