<svg width="161" height="43" viewBox="0 0 161 43" fill="none" xmlns="http://www.w3.org/2000/svg"><path d="M160.26 29.4884H0.734497V42.3349H160.26V29.4884Z" fill="#FFED00"></path><path fill-rule="evenodd" clip-rule="evenodd" d="M89.9687 1.55709C88.073 0.971568 86.1004 0.670945 84.1158 0.665131C75.7698 0.665131 72.0611 4.96786 72.0611 11.8118C72.0611 19.2056 76.0005 23.1381 83.5362 23.1381C85.7679 23.1271 87.9752 22.6752 90.0306 21.8085L89.3046 16.8382C87.7523 17.4374 86.1012 17.7418 84.4366 17.7358C80.2946 17.7358 79.2196 16.3221 79.2196 11.8399C79.2196 7.59326 80.2045 6.17958 84.3747 6.17958C86.0404 6.17777 87.6988 6.40044 89.3046 6.84154L89.9687 1.55709ZM63.006 8.49082C63.006 10.544 62.1956 11.0601 60.1921 11.0601H57.3501V6.12348H60.2202C62.3082 6.12348 63.0004 6.68446 63.0004 8.49082H63.006ZM70.1083 8.23277C70.1083 3.40833 66.7316 1.06903 60.344 1.06903H50.5798V22.7566H57.3332V15.5985H60.1471L63.8502 22.7566H71.8585L66.2926 14.3419C68.7295 13.478 70.1195 11.0769 70.1195 8.27765L70.1083 8.23277ZM124.737 17.388V14.095H133.578V9.36034H124.737V6.47129H135.43L135.312 1.06903H117.956V22.7342H135.745L135.863 17.388H124.737ZM113.87 1.06903V22.7342H107.117V14.5887H99.9018V22.7342H93.1259V1.06903H99.9018V9.06863H107.117V1.06903H113.87ZM148.61 11.0601C150.614 11.0601 151.424 10.544 151.424 8.49082H151.419C151.419 6.68446 150.726 6.12348 148.638 6.12348H145.768V11.0601H148.61ZM148.762 1.06903C155.15 1.06903 158.526 3.40833 158.526 8.23277V8.27765C158.526 11.0769 157.136 13.478 154.7 14.3419L160.265 22.7566H152.263L148.56 15.5985H145.746V22.7566H138.992V1.06903H148.762ZM38.1255 14.067H33.1449L34.9683 8.40667L35.638 6.16275H35.7225L36.364 8.40667L38.1255 14.067ZM48.4469 22.7566L39.6338 1.06903H31.783L23.1443 22.7566H30.3648L31.5241 19.1158H39.6957L40.8212 22.7566H48.4469ZM23.7465 1.06343H28.7946V5.65788H23.7465V1.06343ZM47.7096 1.06343H42.6615V5.65788H47.7096V1.06343ZM9.68831 9.18644L14.9334 1.06903H22.7279L15.6313 11.3238L23.1387 22.7285H14.8771L9.6039 14.2689H7.51598V22.7285H0.734497V1.06903H7.51598V9.18644H9.68831Z" fill="#131313"></path></svg>