<svg xmlns:mydata="http://www.w3.org/2000/svg" mydata:contrastcolor="ffffff" mydata:template="Contrast" mydata:presentation="2.5" mydata:layouttype="undefined" mydata:specialfontid="undefined" mydata:id1="441" mydata:id2="443" mydata:companyname="steelwork" mydata:companytagline="" version="1.1" xmlns="http://www.w3.org/2000/svg" xmlns:xlink="http://www.w3.org/1999/xlink" viewBox="0 45 550 380"><g fill="#101820" fill-rule="nonzero" stroke="none" stroke-width="1" stroke-linecap="butt" stroke-linejoin="miter" stroke-miterlimit="10" stroke-dasharray="" stroke-dashoffset="0" font-family="none" font-weight="none" font-size="none" text-anchor="none" style="mix-blend-mode: normal"><g data-paper-data="{&quot;isGlobalGroup&quot;:true,&quot;bounds&quot;:{&quot;x&quot;:65,&quot;y&quot;:124.45411940156444,&quot;width&quot;:420,&quot;height&quot;:221.09176119687115}}"><g data-paper-data="{&quot;isPrimaryText&quot;:true}"><path d="M79.84144,311.48668c0,-1.7759 1.45877,-2.91755 3.23467,-2.91755c3.86892,0 6.91332,2.21987 7.92812,5.64482h8.94292v-13.95349h-9.70402v3.17125c-2.537,-2.41015 -6.02537,-3.99577 -10.08457,-3.99577c-8.81607,0 -15.09514,5.64482 -15.09514,12.93869c0,16.17336 22.00846,13.89006 22.00846,20.29598c0,1.83932 -1.64905,3.2981 -4.24947,3.2981c-4.24947,0 -7.67442,-2.60042 -8.94292,-6.65962h-8.87949v15.34884h9.64059v-3.5518c2.7907,2.72727 6.40592,4.43975 10.90909,4.43975c9.51374,0 16.30021,-6.21564 16.30021,-14.27061c0,-16.68076 -22.00846,-13.95349 -22.00846,-19.78858z" data-paper-data="{&quot;glyphName&quot;:&quot;S&quot;,&quot;glyphIndex&quot;:0,&quot;firstGlyphOfWord&quot;:true,&quot;word&quot;:1}"></path><path d="M149.29175,300.26047h-44.14376v14.77801h9.51374v-6.97674h5.3277v28.66808h-5.13742v7.92812h24.73573v-7.92812h-5.13742v-28.66808h5.3277v6.97674h9.51374z" data-paper-data="{&quot;glyphName&quot;:&quot;T&quot;,&quot;glyphIndex&quot;:1,&quot;word&quot;:1}"></path><path d="M177.70613,331.90952v4.94715h-7.16702v-11.03594h11.28964v-8.30867h-11.28964v-9.45032h6.91332v4.18605h9.70402v-11.98732h-34.88372v7.92812h3.8055v28.54123h-3.8055v7.92812h35.074v-12.74841z" data-paper-data="{&quot;glyphName&quot;:&quot;E&quot;,&quot;glyphIndex&quot;:2,&quot;word&quot;:1}"></path><path d="M217.47357,331.90952v4.94715h-7.16702v-11.03594h11.28964v-8.30867h-11.28964v-9.45032h6.91332v4.18605h9.70402v-11.98732h-34.88372v7.92812h3.8055v28.54123h-3.8055v7.92812h35.074v-12.74841z" data-paper-data="{&quot;glyphName&quot;:&quot;E&quot;,&quot;glyphIndex&quot;:3,&quot;word&quot;:1}"></path><path d="M257.30444,329.68964v7.04017h-7.23044v-28.54123h4.3129v-7.92812h-22.57928v7.92812h3.8055v28.54123h-3.8055v7.92812h35.13742v-14.96829z" data-paper-data="{&quot;glyphName&quot;:&quot;L&quot;,&quot;glyphIndex&quot;:4,&quot;word&quot;:1}"></path><path d="M334.22149,300.26047h-17.55689v4.79973h6.44174l-8.33637,32.77707l-9.78891,-37.5768h-7.83113l-9.85207,37.76626l-8.46267,-32.96654h6.44174v-4.79973h-18.3779v4.79973h4.92603l10.86254,39.59774h8.1469l9.85207,-35.61902l9.66261,35.61902h8.1469l10.79938,-39.59774h4.92603z" data-paper-data="{&quot;glyphName&quot;:&quot;W&quot;,&quot;glyphIndex&quot;:5,&quot;fontStyleEffect&quot;:true,&quot;word&quot;:1}"></path><path d="M362.46309,345.54588c13.59911,0 22.20133,-10.31002 22.20133,-23.52962c0,-12.77683 -8.85523,-22.7706 -22.20133,-22.7706c-13.28285,0 -22.13808,9.99376 -22.13808,22.7706c0,13.2196 8.60223,23.52962 22.13808,23.52962zM362.46309,339.85323c-9.04499,0 -14.73764,-7.52695 -14.73764,-17.83697c0,-10.05701 5.69265,-17.07795 14.73764,-17.07795c9.04499,0 14.80089,7.02093 14.80089,17.07795c0,10.31002 -5.7559,17.83697 -14.80089,17.83697z" data-paper-data="{&quot;glyphName&quot;:&quot;O&quot;,&quot;glyphIndex&quot;:6,&quot;fontStyleEffect&quot;:true,&quot;word&quot;:1}"></path><path d="M428.32981,339.83764l-9.64059,-15.28541c5.39112,-1.90275 9.32347,-6.46934 9.32347,-12.05074c0,-7.35729 -5.8351,-12.24101 -13.69979,-12.24101h-19.09091v4.8203h5.13742v34.75687h-5.13742v4.8203h16.74419v-4.8203h-4.75687v-13.95349h4.88372l11.09937,18.77378h10.33827v-4.8203zM412.21987,321.25413h-5.01057v-16.36364h5.64482c4.43975,0 7.92812,2.98097 7.92812,7.73784c0,5.26427 -3.61522,8.62579 -8.56237,8.62579z" data-paper-data="{&quot;glyphName&quot;:&quot;R&quot;,&quot;glyphIndex&quot;:7,&quot;fontStyleEffect&quot;:true,&quot;word&quot;:1}"></path><path d="M480.05285,339.83764l-16.93446,-19.02748l15.60254,-15.72939h4.88372v-4.8203h-16.80761v4.50317h5.20085l-16.10994,16.23679v-15.91966h4.18605v-4.8203h-16.17336v4.8203h5.13742v34.75687h-5.13742v4.8203h16.42706v-4.8203h-4.43975v-17.56871l15.72939,17.75899h-4.63002v4.63002h18.01268v-4.8203z" data-paper-data="{&quot;glyphName&quot;:&quot;K&quot;,&quot;glyphIndex&quot;:8,&quot;lastGlyphOfWord&quot;:true,&quot;fontStyleEffect&quot;:true,&quot;word&quot;:1}"></path></g><g data-paper-data="{&quot;selectedEffects&quot;:{&quot;container&quot;:&quot;circle_simple_outline3&quot;,&quot;transformation&quot;:&quot;&quot;,&quot;pattern&quot;:&quot;&quot;},&quot;initialText&quot;:&quot;SSS&quot;,&quot;fillRule&quot;:&quot;nonzero&quot;,&quot;blockLetter&quot;:&quot;O&quot;,&quot;blockLetterId&quot;:0,&quot;relativeBoundsIconToContainer&quot;:{&quot;top&quot;:-1.2872568836514247e-7,&quot;left&quot;:0.00001174010560955478},&quot;widthRatioIconToContainer&quot;:0.8161043797377571,&quot;heightRatioIconToContainer&quot;:0.8176771335873178,&quot;bounds&quot;:{&quot;x&quot;:202.0232566627907,&quot;y&quot;:124.45411940156444,&quot;width&quot;:145.95348667441863,&quot;height&quot;:145.95349397209307},&quot;isIcon&quot;:&quot;true&quot;,&quot;iconType&quot;:&quot;initial&quot;,&quot;iconStyle&quot;:&quot;standalone&quot;,&quot;rawInitialId&quot;:425,&quot;monogramSpecial&quot;:&quot;emblem&quot;,&quot;suitableAsStandaloneIcon&quot;:true}"><path d="M253.41371,175.67797h-7.64647v-22.28021c-10.28317,7.25096 -18.45698,18.72066 -21.35736,30.71769h29.00383l-0.13184,69.60918c-19.51166,-8.1738 -32.16788,-22.67572 -36.78212,-43.76941h7.64647c2.76855,12.39255 11.07419,24.12591 21.62104,31.5087v-49.70201l-30.32218,-0.26367c1.8457,-22.54389 16.21578,-41.26453 37.83681,-50.36119zM259.52791,139.90166c8.67903,-2.7203 19.81928,-2.84983 30.57092,-0.38862v36.52965h-7.38366v-30.31185c-5.8292,-0.90677 -10.36303,-0.77723 -15.80361,0.12954v38.60227h23.18727v70.72764c-8.41996,2.46121 -18.78298,2.59075 -29.01647,0.12954v-45.46777h7.38366v39.37949c5.57013,0.64769 8.9381,0.64769 14.24915,-0.12954v-57.25571h-23.18727zM333.13126,184.07743c6.15304,30.89613 -7.85495,57.34111 -36.91825,69.64719l0.13092,-43.85679h7.4622v31.81253c16.75722,-11.12784 23.30301,-25.52858 23.04117,-50.00983h-30.63429v-50.53349c13.48433,4.05839 27.49232,18.1973 34.0381,34.43085h-8.11678c-3.79656,-8.50953 -10.47326,-16.49539 -18.32821,-21.99385v30.63429zM223.39764,145.82851c6.7326,-6.73262 14.46448,-11.9454 23.19564,-15.63836c9.04098,-3.82402 18.50987,-5.73603 28.40668,-5.73603c9.89672,0 19.36569,1.91201 28.40689,5.73603c8.73096,3.69299 16.46283,8.90578 23.19562,15.63836c6.73251,6.7326 11.94518,14.46448 15.63803,23.19564c3.82416,9.04098 5.73624,18.50987 5.73624,28.40668c0,9.89672 -1.91208,19.36569 -5.73624,28.40689c-3.69285,8.73096 -8.90553,16.46283 -15.63803,23.19562c-6.73279,6.73251 -14.46466,11.94518 -23.19562,15.63803c-9.04121,3.82416 -18.51017,5.73624 -28.40689,5.73624c-9.89681,0 -19.3657,-1.91208 -28.40668,-5.73624c-8.73116,-3.69285 -16.46304,-8.90553 -23.19564,-15.63803c-6.73261,-6.73279 -11.9454,-14.46466 -15.63835,-23.19562c-3.82402,-9.04121 -5.73603,-18.51017 -5.73603,-28.40689c0,-9.89681 1.91201,-19.3657 5.73603,-28.40668c3.69296,-8.73116 8.90575,-16.46304 15.63835,-23.19564zM227.36705,245.06391c6.21646,6.21627 13.35413,11.02881 21.41303,14.43761c8.342,3.52828 17.08197,5.29243 26.21988,5.29243c9.13786,0 17.87784,-1.76414 26.21992,-5.29243c8.05889,-3.4088 15.19661,-8.22134 21.41316,-14.43761c6.21627,-6.21655 11.02881,-13.35427 14.43761,-21.41316c3.52828,-8.34209 5.29243,-17.08206 5.29243,-26.21992c0,-9.13791 -1.76414,-17.87788 -5.29243,-26.21988c-3.4088,-8.05889 -8.22134,-15.19657 -14.43761,-21.41303c-6.21655,-6.21647 -13.35427,-11.02902 -21.41316,-14.43762c-8.34209,-3.52837 -17.08206,-5.29255 -26.21992,-5.29255c-9.13789,0 -17.87785,1.76418 -26.21988,5.29255c-8.05889,3.40861 -15.19657,8.22115 -21.41303,14.43762c-6.21647,6.21646 -11.02901,13.35413 -14.43762,21.41303c-3.5284,8.34203 -5.29259,17.08199 -5.29259,26.21988c0,9.13786 1.7642,17.87784 5.29259,26.21992c3.40863,8.05889 8.22117,15.19661 14.43762,21.41316z" data-paper-data="{&quot;isPathIcon&quot;:true}"></path></g></g></g><g class="watermark-group" style="opacity:0.040000010281801224"><path class="watermark-path" d="M129.52,370.3a11.88,11.88,0,0,1,2.58,5.58,12,12,0,0,1,.11,3,11.81,11.81,0,0,1-.64,2.93,12.34,12.34,0,0,1-1.41,2.72,11.65,11.65,0,0,1-2.13,2.32,12,12,0,0,1-2.64,1.69,13,13,0,0,1-2.91.9,12.47,12.47,0,0,1-3,.12,12.17,12.17,0,0,1-2.93-.64,11.8,11.8,0,0,1-2.72-1.38,12.19,12.19,0,0,1-4-4.79,11.85,11.85,0,0,1-.89-2.92,12.14,12.14,0,0,1-.13-3,11.54,11.54,0,0,1,.64-2.92,11.67,11.67,0,0,1,3.5-5,11.44,11.44,0,0,1,2.67-1.69,11.64,11.64,0,0,1,2.92-.91,10.71,10.71,0,0,1,3-.12,11.68,11.68,0,0,1,5.66,2,11.7,11.7,0,0,1,2.34,2.12m-1.4,8.76a13,13,0,0,1-1.22,2.32,9.68,9.68,0,0,1-1.81,2,7.44,7.44,0,0,1-2.38,1.37,6.17,6.17,0,0,1-5.11-.46,8.73,8.73,0,0,1-3.85-4.58,6.69,6.69,0,0,1-.34-2.66,6.09,6.09,0,0,1,.77-2.47,7.15,7.15,0,0,1,1.75-2.11,9.58,9.58,0,0,1,1.09-.81,8.23,8.23,0,0,1,1.12-.63,8.14,8.14,0,0,1,1.19-.46,12.71,12.71,0,0,1,1.32-.37l2,2.38a12.83,12.83,0,0,0-1.56.17,7.86,7.86,0,0,0-1.23.32,4.5,4.5,0,0,0-1,.49,6.41,6.41,0,0,0-.93.67,4.49,4.49,0,0,0-1.15,1.39,3.87,3.87,0,0,0-.45,1.58,4.12,4.12,0,0,0,.26,1.63,6.11,6.11,0,0,0,2.36,2.82,4.43,4.43,0,0,0,1.57.53,3.91,3.91,0,0,0,1.62-.17,4.71,4.71,0,0,0,1.57-.89,10.5,10.5,0,0,0,.83-.79,5.71,5.71,0,0,0,.65-.93,10.13,10.13,0,0,0,.54-1.14,12.24,12.24,0,0,0,.44-1.49l2,2.33m-14.46,4.55a8.86,8.86,0,0,0,2.78,2.22,9,9,0,0,0,3.29.94,9.15,9.15,0,0,0,3.39-.37,8.68,8.68,0,0,0,3.11-1.69,8.8,8.8,0,0,0,2.22-2.78,9.15,9.15,0,0,0,1-3.29,8.95,8.95,0,0,0-4.83-8.76,9,9,0,0,0-6.73-.57,9,9,0,0,0-5.33,4.47,8.94,8.94,0,0,0-.57,6.71,8.76,8.76,0,0,0,1.7,3.12"></path><path class="watermark-path" d="M147,349c-.48.12-1.09.31-1.82.57a24.37,24.37,0,0,0-2.4,1A28.35,28.35,0,0,0,140,352a20.72,20.72,0,0,0-2.71,1.94c-.7.59-1.28,1.11-1.74,1.57a15.07,15.07,0,0,0-1.1,1.22,4.09,4.09,0,0,0-.59.92,2.32,2.32,0,0,0-.22.64,1.16,1.16,0,0,0,0,.47,1.83,1.83,0,0,0,.18.29,1.15,1.15,0,0,0,1,.37,5.54,5.54,0,0,0,1.51-.38q.87-.35,1.95-.9l2.26-1.18q1.2-.65,2.49-1.29c.87-.44,1.73-.83,2.59-1.17a18.94,18.94,0,0,1,2.6-.81,9.27,9.27,0,0,1,2.46-.29,6.25,6.25,0,0,1,2.24.49,5.12,5.12,0,0,1,1.89,1.47,6.35,6.35,0,0,1,1.41,2.61,6,6,0,0,1,.09,2.6,8.3,8.3,0,0,1-.9,2.52,17.79,17.79,0,0,1-1.62,2.37,23.92,23.92,0,0,1-2,2.15c-.72.67-1.41,1.29-2.09,1.87a33.79,33.79,0,0,1-5.33,3.7,32.29,32.29,0,0,1-4.91,2.28l-3.61-4.3a21.38,21.38,0,0,0,5.39-1.87,27.2,27.2,0,0,0,5.4-3.56,21.59,21.59,0,0,0,2.38-2.27,8.67,8.67,0,0,0,1.18-1.7,2.32,2.32,0,0,0,.27-1.19,1.34,1.34,0,0,0-.28-.74,1.21,1.21,0,0,0-1-.42,4.32,4.32,0,0,0-1.55.34,15.77,15.77,0,0,0-2,.88c-.72.37-1.48.77-2.27,1.21l-2.45,1.3c-.85.45-1.7.85-2.56,1.21a22.37,22.37,0,0,1-2.54.86,10,10,0,0,1-2.43.32,5.76,5.76,0,0,1-2.2-.45,5,5,0,0,1-1.89-1.45,6.12,6.12,0,0,1-1.31-2.41,6,6,0,0,1-.1-2.41,8.28,8.28,0,0,1,.81-2.38,14.06,14.06,0,0,1,1.49-2.24,22.37,22.37,0,0,1,1.85-2.05q1-1,2-1.77c.7-.59,1.44-1.15,2.23-1.7s1.62-1.06,2.44-1.53,1.63-.91,2.43-1.3,1.58-.75,2.3-1L147,349"></path><path class="watermark-path" d="M186.76,337.57l-10.6-12.63,3.92,18.24-4.66,3.91-17.27-7,10.6,12.63-4.86,4.07-15.09-18,6.59-5.54,18.69,7.52-4.15-19.71,6.57-5.52,15.09,18-4.83,4.05"></path><path class="watermark-path" d="M208.84,313.24l-10,8.42,1.16,4.82L194.56,331l-5.68-25.89,5.42-4.55,24.51,10.09-5.42,4.55-4.55-2m-11.23,3.45,6.57-5.52-8.83-3.87,2.26,9.39"></path><path class="watermark-path" d="M227.49,281.38c-.48.12-1.09.31-1.82.57a24.37,24.37,0,0,0-2.4,1,26.11,26.11,0,0,0-2.7,1.47,20.72,20.72,0,0,0-2.71,1.94c-.7.59-1.28,1.11-1.74,1.57a13.39,13.39,0,0,0-1.1,1.22,4.29,4.29,0,0,0-.59.91,2.48,2.48,0,0,0-.22.65,1.16,1.16,0,0,0,0,.47,1.83,1.83,0,0,0,.18.29,1.15,1.15,0,0,0,1,.37,5.54,5.54,0,0,0,1.51-.38q.87-.34,2-.9l2.26-1.18q1.2-.64,2.49-1.29c.87-.44,1.73-.83,2.59-1.17a18.94,18.94,0,0,1,2.6-.81,9.27,9.27,0,0,1,2.46-.29,6.08,6.08,0,0,1,2.24.49,5.09,5.09,0,0,1,1.89,1.46,6.47,6.47,0,0,1,1.41,2.61,6.07,6.07,0,0,1,.09,2.61,8.3,8.3,0,0,1-.9,2.52,16.32,16.32,0,0,1-1.63,2.36,21.41,21.41,0,0,1-2,2.16c-.72.67-1.41,1.29-2.1,1.86a33.36,33.36,0,0,1-5.32,3.71,31.92,31.92,0,0,1-4.92,2.28l-3.6-4.3a21.38,21.38,0,0,0,5.39-1.87,27.2,27.2,0,0,0,5.4-3.56,21.59,21.59,0,0,0,2.38-2.27,8.67,8.67,0,0,0,1.18-1.7A2.32,2.32,0,0,0,231,293a1.34,1.34,0,0,0-.28-.74,1.21,1.21,0,0,0-1-.42,4.32,4.32,0,0,0-1.55.34,16.54,16.54,0,0,0-2,.88c-.71.37-1.47.77-2.26,1.21l-2.46,1.3c-.84.44-1.7.85-2.55,1.21a24.53,24.53,0,0,1-2.54.86A10,10,0,0,1,214,298a5.76,5.76,0,0,1-2.2-.45,5,5,0,0,1-1.89-1.45,6.12,6.12,0,0,1-1.31-2.41,5.78,5.78,0,0,1-.1-2.41,8,8,0,0,1,.81-2.38,14.61,14.61,0,0,1,1.49-2.25,22.26,22.26,0,0,1,1.85-2q1-1,2-1.77c.7-.59,1.44-1.15,2.23-1.7s1.62-1.06,2.44-1.53,1.63-.91,2.43-1.31,1.58-.74,2.3-1l3.5,4.16"></path><path class="watermark-path" d="M261.64,274.74l-6.29-7.5L243,277.61l6.3,7.5-4.86,4.07-15.09-18,4.85-4.08,5.49,6.55L252,263.3l-5.49-6.55,4.86-4.07,15.09,18-4.86,4.08"></path><path class="watermark-path" d="M272.18,265.9l-15.09-18,4.86-4.08,15.09,18-4.86,4.08"></path><path class="watermark-path" d="M299.65,242.85l-22.51-2.18L287.51,253l-4.85,4.08-15.1-18,5.28-4.43,22.56,2.22L285,224.5l4.83-4.06,15.09,18-5.26,4.42"></path><path class="watermark-path" d="M306.68,205.52a31.88,31.88,0,0,1,5.29-3.66,34.48,34.48,0,0,1,5.14-2.35l3.69,4.39a20.77,20.77,0,0,0-2.37.61,20.47,20.47,0,0,0-2.61,1,25.12,25.12,0,0,0-2.76,1.49,23.9,23.9,0,0,0-2.8,2,20.42,20.42,0,0,0-2.8,2.77,12.77,12.77,0,0,0-1.64,2.52,7,7,0,0,0-.68,2.24,6,6,0,0,0,.66,3.64,8.16,8.16,0,0,0,.94,1.38,9.12,9.12,0,0,0,1.08,1.07,6.39,6.39,0,0,0,1.47.91,6.73,6.73,0,0,0,1.88.48,6.54,6.54,0,0,0,2.28-.18,11.67,11.67,0,0,0,2.74-1.07,19.38,19.38,0,0,0,3.18-2.22c.57-.48,1.06-.92,1.46-1.31a14.57,14.57,0,0,0,1-1.13,11.46,11.46,0,0,0,.81-1.05l.74-1.09-1.82-2.17-5.45,4.57-3.31-3.94,10.31-8.65,7.71,9.19a29,29,0,0,1-1.67,2.43q-1,1.26-2.1,2.52c-.74.84-1.5,1.65-2.3,2.44s-1.58,1.5-2.33,2.14a31,31,0,0,1-3.59,2.61,22.55,22.55,0,0,1-3.64,1.83,15.64,15.64,0,0,1-3.63.89,10.72,10.72,0,0,1-3.49-.15,10.45,10.45,0,0,1-3.28-1.33,12.54,12.54,0,0,1-3-2.67,12,12,0,0,1-2.08-3.44,10.45,10.45,0,0,1-.71-3.5,11.14,11.14,0,0,1,.51-3.51,15.72,15.72,0,0,1,1.56-3.43,21.62,21.62,0,0,1,2.42-3.28,30.3,30.3,0,0,1,3.15-3"></path><path class="watermark-path" d="M336.91,211.59l-15.1-18,4.86-4.08,11.79,14,13.13-11,3.31,3.94-18,15.1"></path><path class="watermark-path" d="M374.54,164.71a12.28,12.28,0,0,1,2.59,4.81,10.44,10.44,0,0,1,0,5,14.62,14.62,0,0,1-2.33,5,25.55,25.55,0,0,1-4.56,4.85,26.07,26.07,0,0,1-5.6,3.67,14.79,14.79,0,0,1-5.38,1.43,10.43,10.43,0,0,1-4.94-.89,13.24,13.24,0,0,1-6.87-8.18,10.48,10.48,0,0,1,0-5,14.51,14.51,0,0,1,2.36-5,25.23,25.23,0,0,1,4.57-4.89,25,25,0,0,1,5.59-3.64,14.45,14.45,0,0,1,5.35-1.43,10.31,10.31,0,0,1,4.93.92,12.22,12.22,0,0,1,4.28,3.38m-4.91,4.11a8.36,8.36,0,0,0-2-1.72,5.5,5.5,0,0,0-2.65-.85,7.72,7.72,0,0,0-3.32.57,14.49,14.49,0,0,0-4,2.52,16.72,16.72,0,0,0-2.38,2.4,10.15,10.15,0,0,0-1.39,2.24,6.71,6.71,0,0,0-.56,2.1,5.69,5.69,0,0,0,.1,1.9,6.21,6.21,0,0,0,.61,1.69,9.85,9.85,0,0,0,1,1.44,10.48,10.48,0,0,0,1.26,1.23,6.67,6.67,0,0,0,1.57.92,6.1,6.1,0,0,0,1.85.41,6.8,6.8,0,0,0,2.15-.2,11.06,11.06,0,0,0,2.45-1,17.67,17.67,0,0,0,2.77-1.94,14.39,14.39,0,0,0,3.18-3.52,7.74,7.74,0,0,0,1.14-3.17,5.54,5.54,0,0,0-.37-2.74,8.52,8.52,0,0,0-1.36-2.3"></path><path class="watermark-path" d="M382.66,141.76A32.3,32.3,0,0,1,388,138.1a34.12,34.12,0,0,1,5.15-2.35l3.69,4.4a19.62,19.62,0,0,0-2.37.6,22.08,22.08,0,0,0-2.61,1,26,26,0,0,0-2.77,1.49,23.9,23.9,0,0,0-2.8,2,21,21,0,0,0-2.8,2.78,13.19,13.19,0,0,0-1.64,2.51,7.29,7.29,0,0,0-.68,2.24,6.36,6.36,0,0,0,.06,2,5.8,5.8,0,0,0,.61,1.68,8.12,8.12,0,0,0,.93,1.38,9.16,9.16,0,0,0,1.08,1.08,6.56,6.56,0,0,0,1.48.9,6,6,0,0,0,1.87.48,6.76,6.76,0,0,0,2.28-.17,12,12,0,0,0,2.74-1.08,18.57,18.57,0,0,0,3.18-2.22c.58-.48,1.06-.92,1.46-1.31s.75-.77,1.05-1.12.57-.72.81-1.06l.73-1.09-1.82-2.17-5.45,4.57-3.3-3.94,10.3-8.65,7.71,9.19a29,29,0,0,1-1.67,2.43q-1,1.26-2.1,2.52c-.73.84-1.5,1.66-2.3,2.44s-1.57,1.5-2.33,2.14a31,31,0,0,1-3.59,2.61,22.15,22.15,0,0,1-3.64,1.83,15.56,15.56,0,0,1-3.62.89,11,11,0,0,1-3.49-.14,10.84,10.84,0,0,1-3.28-1.33,12.82,12.82,0,0,1-3-2.68,12.12,12.12,0,0,1-2.08-3.43A10.71,10.71,0,0,1,375,155a11.18,11.18,0,0,1,.51-3.51,15.51,15.51,0,0,1,1.57-3.43,21.44,21.44,0,0,1,2.42-3.28,30.19,30.19,0,0,1,3.14-3"></path><path class="watermark-path" d="M428.63,119.31a12.26,12.26,0,0,1,2.59,4.82,10.44,10.44,0,0,1,0,5,14.53,14.53,0,0,1-2.34,5,25.29,25.29,0,0,1-4.56,4.86,26,26,0,0,1-5.59,3.67,14.84,14.84,0,0,1-5.38,1.43,10.61,10.61,0,0,1-4.95-.89,12.15,12.15,0,0,1-4.3-3.37,12,12,0,0,1-2.56-4.81,10.48,10.48,0,0,1,0-5,14.39,14.39,0,0,1,2.35-5,27.89,27.89,0,0,1,10.16-8.53,14.49,14.49,0,0,1,5.36-1.43,10.27,10.27,0,0,1,4.92.92,12.21,12.21,0,0,1,4.28,3.37m-4.91,4.12a8.17,8.17,0,0,0-2-1.72,5.58,5.58,0,0,0-2.65-.86,7.86,7.86,0,0,0-3.31.58,14.49,14.49,0,0,0-4,2.52,16.21,16.21,0,0,0-2.38,2.4,9.85,9.85,0,0,0-1.4,2.24,7,7,0,0,0-.56,2.1,6,6,0,0,0,.1,1.9,6.23,6.23,0,0,0,.62,1.69,8.49,8.49,0,0,0,1,1.44,9.18,9.18,0,0,0,1.26,1.23,6.67,6.67,0,0,0,1.57.92,6,6,0,0,0,1.84.41,6.86,6.86,0,0,0,2.16-.2,11.26,11.26,0,0,0,2.45-1,17.62,17.62,0,0,0,2.76-1.94,14.67,14.67,0,0,0,3.19-3.52,7.71,7.71,0,0,0,1.13-3.17,5.53,5.53,0,0,0-.36-2.74,8.55,8.55,0,0,0-1.37-2.3"></path></g></svg>