<svg xmlns:mydata="http://www.w3.org/2000/svg" mydata:contrastcolor="ffffff" mydata:template="Contrast" mydata:presentation="2.5" mydata:layouttype="undefined" mydata:specialfontid="undefined" mydata:id1="441" mydata:id2="443" mydata:companyname="steelwork" mydata:companytagline="" version="1.1" xmlns="http://www.w3.org/2000/svg" xmlns:xlink="http://www.w3.org/1999/xlink" viewBox="65 124.45411940156444 420 221.09176119687115" class="watermark-logo"><g fill="#101820" fill-rule="nonzero" stroke="none" stroke-width="1" stroke-linecap="butt" stroke-linejoin="miter" stroke-miterlimit="10" stroke-dasharray="" stroke-dashoffset="0" font-family="none" font-weight="none" font-size="none" text-anchor="none" style="mix-blend-mode: normal"><g data-paper-data="{&quot;isGlobalGroup&quot;:true,&quot;bounds&quot;:{&quot;x&quot;:65,&quot;y&quot;:124.45411940156444,&quot;width&quot;:420,&quot;height&quot;:221.09176119687115}}"><g data-paper-data="{&quot;isPrimaryText&quot;:true}"><path d="M79.84144,311.48668c0,-1.7759 1.45877,-2.91755 3.23467,-2.91755c3.86892,0 6.91332,2.21987 7.92812,5.64482h8.94292v-13.95349h-9.70402v3.17125c-2.537,-2.41015 -6.02537,-3.99577 -10.08457,-3.99577c-8.81607,0 -15.09514,5.64482 -15.09514,12.93869c0,16.17336 22.00846,13.89006 22.00846,20.29598c0,1.83932 -1.64905,3.2981 -4.24947,3.2981c-4.24947,0 -7.67442,-2.60042 -8.94292,-6.65962h-8.87949v15.34884h9.64059v-3.5518c2.7907,2.72727 6.40592,4.43975 10.90909,4.43975c9.51374,0 16.30021,-6.21564 16.30021,-14.27061c0,-16.68076 -22.00846,-13.95349 -22.00846,-19.78858z" data-paper-data="{&quot;glyphName&quot;:&quot;S&quot;,&quot;glyphIndex&quot;:0,&quot;firstGlyphOfWord&quot;:true,&quot;word&quot;:1}" style="fill: rgb(255, 255, 255);"></path><path d="M149.29175,300.26047h-44.14376v14.77801h9.51374v-6.97674h5.3277v28.66808h-5.13742v7.92812h24.73573v-7.92812h-5.13742v-28.66808h5.3277v6.97674h9.51374z" data-paper-data="{&quot;glyphName&quot;:&quot;T&quot;,&quot;glyphIndex&quot;:1,&quot;word&quot;:1}" style="fill: rgb(255, 255, 255);"></path><path d="M177.70613,331.90952v4.94715h-7.16702v-11.03594h11.28964v-8.30867h-11.28964v-9.45032h6.91332v4.18605h9.70402v-11.98732h-34.88372v7.92812h3.8055v28.54123h-3.8055v7.92812h35.074v-12.74841z" data-paper-data="{&quot;glyphName&quot;:&quot;E&quot;,&quot;glyphIndex&quot;:2,&quot;word&quot;:1}" style="fill: rgb(255, 255, 255);"></path><path d="M217.47357,331.90952v4.94715h-7.16702v-11.03594h11.28964v-8.30867h-11.28964v-9.45032h6.91332v4.18605h9.70402v-11.98732h-34.88372v7.92812h3.8055v28.54123h-3.8055v7.92812h35.074v-12.74841z" data-paper-data="{&quot;glyphName&quot;:&quot;E&quot;,&quot;glyphIndex&quot;:3,&quot;word&quot;:1}" style="fill: rgb(255, 255, 255);"></path><path d="M257.30444,329.68964v7.04017h-7.23044v-28.54123h4.3129v-7.92812h-22.57928v7.92812h3.8055v28.54123h-3.8055v7.92812h35.13742v-14.96829z" data-paper-data="{&quot;glyphName&quot;:&quot;L&quot;,&quot;glyphIndex&quot;:4,&quot;word&quot;:1}" style="fill: rgb(255, 255, 255);"></path><path d="M334.22149,300.26047h-17.55689v4.79973h6.44174l-8.33637,32.77707l-9.78891,-37.5768h-7.83113l-9.85207,37.76626l-8.46267,-32.96654h6.44174v-4.79973h-18.3779v4.79973h4.92603l10.86254,39.59774h8.1469l9.85207,-35.61902l9.66261,35.61902h8.1469l10.79938,-39.59774h4.92603z" data-paper-data="{&quot;glyphName&quot;:&quot;W&quot;,&quot;glyphIndex&quot;:5,&quot;fontStyleEffect&quot;:true,&quot;word&quot;:1}" style="fill: rgb(255, 255, 255);"></path><path d="M362.46309,345.54588c13.59911,0 22.20133,-10.31002 22.20133,-23.52962c0,-12.77683 -8.85523,-22.7706 -22.20133,-22.7706c-13.28285,0 -22.13808,9.99376 -22.13808,22.7706c0,13.2196 8.60223,23.52962 22.13808,23.52962zM362.46309,339.85323c-9.04499,0 -14.73764,-7.52695 -14.73764,-17.83697c0,-10.05701 5.69265,-17.07795 14.73764,-17.07795c9.04499,0 14.80089,7.02093 14.80089,17.07795c0,10.31002 -5.7559,17.83697 -14.80089,17.83697z" data-paper-data="{&quot;glyphName&quot;:&quot;O&quot;,&quot;glyphIndex&quot;:6,&quot;fontStyleEffect&quot;:true,&quot;word&quot;:1}" style="fill: rgb(255, 255, 255);"></path><path d="M428.32981,339.83764l-9.64059,-15.28541c5.39112,-1.90275 9.32347,-6.46934 9.32347,-12.05074c0,-7.35729 -5.8351,-12.24101 -13.69979,-12.24101h-19.09091v4.8203h5.13742v34.75687h-5.13742v4.8203h16.74419v-4.8203h-4.75687v-13.95349h4.88372l11.09937,18.77378h10.33827v-4.8203zM412.21987,321.25413h-5.01057v-16.36364h5.64482c4.43975,0 7.92812,2.98097 7.92812,7.73784c0,5.26427 -3.61522,8.62579 -8.56237,8.62579z" data-paper-data="{&quot;glyphName&quot;:&quot;R&quot;,&quot;glyphIndex&quot;:7,&quot;fontStyleEffect&quot;:true,&quot;word&quot;:1}" style="fill: rgb(255, 255, 255);"></path><path d="M480.05285,339.83764l-16.93446,-19.02748l15.60254,-15.72939h4.88372v-4.8203h-16.80761v4.50317h5.20085l-16.10994,16.23679v-15.91966h4.18605v-4.8203h-16.17336v4.8203h5.13742v34.75687h-5.13742v4.8203h16.42706v-4.8203h-4.43975v-17.56871l15.72939,17.75899h-4.63002v4.63002h18.01268v-4.8203z" data-paper-data="{&quot;glyphName&quot;:&quot;K&quot;,&quot;glyphIndex&quot;:8,&quot;lastGlyphOfWord&quot;:true,&quot;fontStyleEffect&quot;:true,&quot;word&quot;:1}" style="fill: rgb(255, 255, 255);"></path></g><g data-paper-data="{&quot;selectedEffects&quot;:{&quot;container&quot;:&quot;circle_simple_outline3&quot;,&quot;transformation&quot;:&quot;&quot;,&quot;pattern&quot;:&quot;&quot;},&quot;initialText&quot;:&quot;SSS&quot;,&quot;fillRule&quot;:&quot;nonzero&quot;,&quot;blockLetter&quot;:&quot;O&quot;,&quot;blockLetterId&quot;:0,&quot;relativeBoundsIconToContainer&quot;:{&quot;top&quot;:-1.2872568836514247e-7,&quot;left&quot;:0.00001174010560955478},&quot;widthRatioIconToContainer&quot;:0.8161043797377571,&quot;heightRatioIconToContainer&quot;:0.8176771335873178,&quot;bounds&quot;:{&quot;x&quot;:202.0232566627907,&quot;y&quot;:124.45411940156444,&quot;width&quot;:145.95348667441863,&quot;height&quot;:145.95349397209307},&quot;isIcon&quot;:&quot;true&quot;,&quot;iconType&quot;:&quot;initial&quot;,&quot;iconStyle&quot;:&quot;standalone&quot;,&quot;rawInitialId&quot;:425,&quot;monogramSpecial&quot;:&quot;emblem&quot;,&quot;suitableAsStandaloneIcon&quot;:true}"><path d="M253.41371,175.67797h-7.64647v-22.28021c-10.28317,7.25096 -18.45698,18.72066 -21.35736,30.71769h29.00383l-0.13184,69.60918c-19.51166,-8.1738 -32.16788,-22.67572 -36.78212,-43.76941h7.64647c2.76855,12.39255 11.07419,24.12591 21.62104,31.5087v-49.70201l-30.32218,-0.26367c1.8457,-22.54389 16.21578,-41.26453 37.83681,-50.36119zM259.52791,139.90166c8.67903,-2.7203 19.81928,-2.84983 30.57092,-0.38862v36.52965h-7.38366v-30.31185c-5.8292,-0.90677 -10.36303,-0.77723 -15.80361,0.12954v38.60227h23.18727v70.72764c-8.41996,2.46121 -18.78298,2.59075 -29.01647,0.12954v-45.46777h7.38366v39.37949c5.57013,0.64769 8.9381,0.64769 14.24915,-0.12954v-57.25571h-23.18727zM333.13126,184.07743c6.15304,30.89613 -7.85495,57.34111 -36.91825,69.64719l0.13092,-43.85679h7.4622v31.81253c16.75722,-11.12784 23.30301,-25.52858 23.04117,-50.00983h-30.63429v-50.53349c13.48433,4.05839 27.49232,18.1973 34.0381,34.43085h-8.11678c-3.79656,-8.50953 -10.47326,-16.49539 -18.32821,-21.99385v30.63429zM223.39764,145.82851c6.7326,-6.73262 14.46448,-11.9454 23.19564,-15.63836c9.04098,-3.82402 18.50987,-5.73603 28.40668,-5.73603c9.89672,0 19.36569,1.91201 28.40689,5.73603c8.73096,3.69299 16.46283,8.90578 23.19562,15.63836c6.73251,6.7326 11.94518,14.46448 15.63803,23.19564c3.82416,9.04098 5.73624,18.50987 5.73624,28.40668c0,9.89672 -1.91208,19.36569 -5.73624,28.40689c-3.69285,8.73096 -8.90553,16.46283 -15.63803,23.19562c-6.73279,6.73251 -14.46466,11.94518 -23.19562,15.63803c-9.04121,3.82416 -18.51017,5.73624 -28.40689,5.73624c-9.89681,0 -19.3657,-1.91208 -28.40668,-5.73624c-8.73116,-3.69285 -16.46304,-8.90553 -23.19564,-15.63803c-6.73261,-6.73279 -11.9454,-14.46466 -15.63835,-23.19562c-3.82402,-9.04121 -5.73603,-18.51017 -5.73603,-28.40689c0,-9.89681 1.91201,-19.3657 5.73603,-28.40668c3.69296,-8.73116 8.90575,-16.46304 15.63835,-23.19564zM227.36705,245.06391c6.21646,6.21627 13.35413,11.02881 21.41303,14.43761c8.342,3.52828 17.08197,5.29243 26.21988,5.29243c9.13786,0 17.87784,-1.76414 26.21992,-5.29243c8.05889,-3.4088 15.19661,-8.22134 21.41316,-14.43761c6.21627,-6.21655 11.02881,-13.35427 14.43761,-21.41316c3.52828,-8.34209 5.29243,-17.08206 5.29243,-26.21992c0,-9.13791 -1.76414,-17.87788 -5.29243,-26.21988c-3.4088,-8.05889 -8.22134,-15.19657 -14.43761,-21.41303c-6.21655,-6.21647 -13.35427,-11.02902 -21.41316,-14.43762c-8.34209,-3.52837 -17.08206,-5.29255 -26.21992,-5.29255c-9.13789,0 -17.87785,1.76418 -26.21988,5.29255c-8.05889,3.40861 -15.19657,8.22115 -21.41303,14.43762c-6.21647,6.21646 -11.02901,13.35413 -14.43762,21.41303c-3.5284,8.34203 -5.29259,17.08199 -5.29259,26.21988c0,9.13786 1.7642,17.87784 5.29259,26.21992c3.40863,8.05889 8.22117,15.19661 14.43762,21.41316z" data-paper-data="{&quot;isPathIcon&quot;:true}" style="fill: rgb(255, 255, 255);"></path></g></g></g></svg>