<svg xmlns="http://www.w3.org/2000/svg" xmlns:xlink="http://www.w3.org/1999/xlink" width="380.346" height="62" viewBox="0 0 380.346 62"><defs><clipPath id="a"><rect width="380.346" height="62" fill="none"/></clipPath></defs><g transform="translate(0 -1)"><g transform="translate(0 1)"><g clip-path="url(#a)"><path d="M334.065,105.791l1.23-7.2h-3.019l.47-2.66h9.144l-.47,2.66h-2.884l-1.229,7.2Zm7,0,1.7-9.862h3.107l-.627,3.668h3.4l.628-3.668h3.13l-1.7,9.862h-3.107l.671-3.935h-3.4l-.671,3.935Zm10.866,0,1.677-9.862h3.087l-1.7,9.862Zm4.317,0,1.677-9.862h3.78l1.741,3.869c.046.132.114.29.18.467.046.2.135.472.245.828,0-.29,0-.559.025-.871a7.227,7.227,0,0,1,.137-.961l.557-3.333h2.929l-1.679,9.862H362.91l-2.372-5.167a4.862,4.862,0,0,1-.178-.513c-.089-.224-.155-.47-.246-.76,0,.269,0,.557-.02.848a8.592,8.592,0,0,1-.135.963l-.782,4.629Zm10.8,0,1.679-9.862h3.039l-.646,3.78h.716l3.422-3.78h3.621l-4.561,4.852,3.105,5.01h-3.844l-2.146-3.757h-.716l-.651,3.757Zm10.759,0,1.674-9.862h3.089l-1.7,9.862Zm4.291,0,1.7-9.862h3.78L389.3,99.8c.066.132.11.29.178.467.069.2.157.472.247.828a6.076,6.076,0,0,1,.043-.871c.023-.292.067-.625.112-.961l.584-3.333h2.927l-1.677,9.862h-2.952l-2.347-5.167a3.98,3.98,0,0,1-.2-.513c-.068-.224-.155-.47-.223-.76a5.763,5.763,0,0,1-.043.848c-.025.292-.069.628-.114.963l-.8,4.629Zm20.8-2.662a3.47,3.47,0,0,1-.94,1.992,2.721,2.721,0,0,1-1.923.671H395.22a1.982,1.982,0,0,1-1.7-.671,2.725,2.725,0,0,1-.267-1.992l.782-4.54a3.5,3.5,0,0,1,.938-2.035,2.875,2.875,0,0,1,1.99-.625h7.044l-.447,2.66h-6.44l-.76,4.494h3.488l.559-3.241h3.041Zm9.773-3.31h3.352l.2-1.229h-3.356Zm-2.751-1.855a2.357,2.357,0,0,1,.848-1.5,2.622,2.622,0,0,1,1.7-.536h5.1a1.93,1.93,0,0,1,1.519.536,1.682,1.682,0,0,1,.335,1.5l-1.339,7.827h-3.089l.7-3.983h-3.376l-.671,3.983H408.57Zm13.439,1.855h3.4l.224-1.229h-3.42Zm-.561,3.265h3.4l.223-1.276h-3.4Zm-3.532,2.708,1.7-9.862H428.4a1.923,1.923,0,0,1,1.5.467,1.78,1.78,0,0,1,.244,1.479l-.244,1.387a1.617,1.617,0,0,1-.292.737,3.2,3.2,0,0,1-.783.671.879.879,0,0,1,.559.493,2.125,2.125,0,0,1,.02,1.029l-.247,1.385a2.8,2.8,0,0,1-.782,1.679,2.43,2.43,0,0,1-1.675.536Zm20.37-2.662a3.481,3.481,0,0,1-.94,1.992,2.723,2.723,0,0,1-1.921.671h-4.542a1.939,1.939,0,0,1-1.677-.671,2.518,2.518,0,0,1-.267-1.992l.782-4.54a3.533,3.533,0,0,1,.938-2.01,2.748,2.748,0,0,1,1.926-.65h4.538a2.036,2.036,0,0,1,1.7.65,2.663,2.663,0,0,1,.224,2.01Zm-6.259-.046h3.175l.78-4.494h-3.175Zm16.747.673a2.44,2.44,0,0,1-.848,1.5,2.678,2.678,0,0,1-1.7.536h-5.121a2.009,2.009,0,0,1-1.522-.536,1.761,1.761,0,0,1-.335-1.5l1.342-7.827h3.084l-1.227,7.154h3.354l1.231-7.154h3.059Zm3.509,2.035,1.229-7.2h-3.016l.447-2.66h9.146l-.449,2.66H458.1l-1.232,7.2Zm12.143,0,1.7-9.862H475.7l-.467,2.66H470.1l-.2,1.141h5.142l-.381,2.236h-5.144l-.648,3.826Zm19.163-2.035a2.3,2.3,0,0,1-.828,1.5,2.672,2.672,0,0,1-1.7.536h-5.117a2.014,2.014,0,0,1-1.524-.536,1.7,1.7,0,0,1-.337-1.5l1.344-7.827h3.087l-1.23,7.154h3.354l1.229-7.154h3.064Zm3.534,2.035,1.229-7.2h-3.02l.449-2.66h9.144l-.447,2.66h-2.884l-1.23,7.2Zm16.816-2.035a2.422,2.422,0,0,1-.851,1.5,2.629,2.629,0,0,1-1.7.536h-5.1a2.022,2.022,0,0,1-1.544-.536,1.75,1.75,0,0,1-.313-1.5l1.318-7.827h3.087l-1.23,7.154h3.374l1.207-7.154h3.089Zm4.9-3.892h3.152l.221-1.275H510.4Zm-4.07,5.927,1.7-9.862h6.91a2.247,2.247,0,0,1,1.677.493,1.7,1.7,0,0,1,.312,1.519l-.224,1.252a1.993,1.993,0,0,1-.424,1.029,2.2,2.2,0,0,1-1.006.581,1.562,1.562,0,0,1,.8.58,1.608,1.608,0,0,1,.068,1.075l-.559,3.333h-3.039l.621-3.668h-3.151l-.625,3.668Zm10.4,0,1.674-9.862h8.231l-.47,2.66h-5.121l-.2,1.141h5.1l-.381,2.236h-5.1l-.2,1.118h5.1l-.447,2.708Z" transform="translate(-153.747 -44.387)" fill="#ff8300"/><path d="M16.153,0C14.653,7.38,1.638,15,.162,22.382-1.38,29.92,8.615,37.209,7.095,44.746H68.72L77.238,0Zm28.44,39.937H16.084L23.106,4.784H34.734L29.612,30.321h16.9ZM66.262,13.124H61.945l-3.513,17.22h4.14l-1.922,9.615H47.165l3.221-14.78a7.4,7.4,0,0,1-2.324,1.7,7.044,7.044,0,0,1-2.841.491H39.181c-2.1,0-3.6-.6-4.493-1.789s-1.119-2.884-.671-5.121l1.61-8.7a8.7,8.7,0,0,1,2.728-5.142A7.674,7.674,0,0,1,43.564,4.83h5.68a5.578,5.578,0,0,1,3.153.694A3.316,3.316,0,0,1,53.716,7.8a6.57,6.57,0,0,1,2.373-2.3,7.24,7.24,0,0,1,3.375-.671h8.452Z" transform="translate(0)" fill="#ff8300"/><path d="M81.294,30.812h7.891l1.321-6.8H82.59Z" transform="translate(-37.615 -11.11)" fill="#ff8300"/><path d="M254.542,6.325l1.1-6.283h5.991l-1.118,6.283Z" transform="translate(-117.779 -0.02)" fill="#fff"/><path d="M238.394,6.325,239.489.043h5.993l-1.118,6.283Z" transform="translate(-110.307 -0.02)" fill="#fff"/><path d="M142.257,45.032,150.331.042h12.41l-6.328,34.95h18.022l-1.743,10.04Z" transform="translate(-65.824 -0.019)" fill="#fff"/><path d="M367.1,42.136h12.055l2.929-16.727H370.011Zm3.826-26.655H386.85c3.107,0,5.254.805,6.463,2.439,1.182,1.608,1.5,4.113.892,7.489l-2.929,16.773h7.873l-1.677,9.994H363.192c-3.041,0-5.19-.828-6.417-2.482-1.252-1.677-1.588-4.136-1.009-7.4l2.952-16.884c.581-3.353,1.766-5.858,3.556-7.469a10.444,10.444,0,0,1,7.311-2.459Z" transform="translate(-164.489 -7.163)" fill="#fff"/><path d="M438.681,52.176,445.1,15.481h31.261l-1.723,9.928H455.116l-.737,4.225H473.9l-1.453,8.3H452.926l-2.484,14.245Zm-35.844,0,6.417-36.695h31.284l-1.745,9.928H419.272l-.737,4.225h19.519l-1.453,8.3H417.1l-2.5,14.245Zm-26.564-10.04h12.075l2.9-16.727H379.2ZM400,42.293a12.77,12.77,0,0,1-3.554,7.4,10.355,10.355,0,0,1-7.271,2.482H371.934c-3.064,0-5.185-.828-6.417-2.482-1.25-1.677-1.588-4.136-1.006-7.4l2.952-16.884c.58-3.353,1.768-5.858,3.554-7.469a10.45,10.45,0,0,1,7.314-2.459h17.26c3.109,0,5.254.805,6.46,2.439,1.186,1.608,1.5,4.113.9,7.489Zm-63.505,9.882,4.674-26.767H329.673l1.723-9.928h34.792l-1.743,9.928H353.467L348.79,52.176Zm-89.619,0,1.743-10.04h24.239l.694-3.981H260.6c-4.5,0-7.357-.491-8.632-1.453-1.276-.985-1.677-2.706-1.252-5.211l1.542-8.787a7.441,7.441,0,0,1,3.534-5.523q2.851-1.707,8.787-1.7h22.024l-1.72,9.928H263.238l-.711,4.07h15.561c2.861,0,4.9.582,6.036,1.723,1.164,1.161,1.522,2.952,1.1,5.388L283.657,45.6a7.129,7.129,0,0,1-3.043,4.807,10.6,10.6,0,0,1-6.349,1.768Zm-2.662-7.56a8.658,8.658,0,0,1-3.175,5.548,10.239,10.239,0,0,1-6.481,2.012H215.121c-2.617,0-4.54-.693-5.793-2.035a6.176,6.176,0,0,1-1.275-5.526l5.1-29.135h11.694l-4.672,26.655h12.789l4.674-26.655h11.672Z" transform="translate(-96.2 -7.163)" fill="#fff"/><path d="M693.085,77.3a2.391,2.391,0,1,1-.7-1.679,2.292,2.292,0,0,1,.7,1.679m-.337,0a2.053,2.053,0,1,0-.6,1.442,1.965,1.965,0,0,0,.6-1.442m-.92,1.386h-.452l-.533-1.18h-.762v1.18h-.408V75.915h1.17a.942.942,0,0,1,.708.243.761.761,0,0,1,.235.541.774.774,0,0,1-.129.422.7.7,0,0,1-.4.287Zm-1.746-1.5h.719a.561.561,0,0,0,.418-.14.477.477,0,0,0,.138-.347.379.379,0,0,0-.146-.323.587.587,0,0,0-.366-.11h-.762Z" transform="translate(-318.494 -34.665)" fill="#fff"/></g></g></g></svg>