<?xml version="1.0" encoding="utf-8"?>
<!-- Generator: Adobe Illustrator 17.1.0, SVG Export Plug-In . SVG Version: 6.00 Build 0)  -->
<!DOCTYPE svg PUBLIC "-//W3C//DTD SVG 1.1//EN" "http://www.w3.org/Graphics/SVG/1.1/DTD/svg11.dtd">
<svg version="1.1" id="Capa_1" xmlns="http://www.w3.org/2000/svg" xmlns:xlink="http://www.w3.org/1999/xlink" x="0px" y="0px"
	 viewBox="0 0 281 60.2" enable-background="new 0 0 281 60.2" xml:space="preserve">
<g>
	<defs>
		<rect id="SVGID_1_" width="281" height="60.2"/>
	</defs>
	<clipPath id="SVGID_2_">
		<use xlink:href="#SVGID_1_"  overflow="visible"/>
	</clipPath>
	<path clip-path="url(#SVGID_2_)" fill-rule="evenodd" clip-rule="evenodd" d="M220.5,20.2v30.1h10.7V20.2h9.9v-8.4h-30.5v8.4H220.5
		z M189.7,39.2V29.2h0.8c3.9,0,5.7-2,5.7-4.7c0-2.7-1.8-4.8-5.7-4.8h-0.8v-7.8h2.1c9.9,0,14.9,5,14.9,12.6c0,5.1-2.7,8.9-7.5,10.9
		l8.6,14.9h-12L189.7,39.2z M270.4,25.6h-12.9V11.9h-10.7v38.4h10.7V34.3h12.9v16.1H281V11.9h-10.7V25.6z M189.7,11.9v7.8h-6.5v9.4
		h6.5v10.1l-1.2-2.2h-5.3v13.3h-10.4V11.9H189.7z M87.1,37.2l-5.5-25.3H71.1l9.9,38.4h11.2l6.6-25.1l6.7,25.1h11.2l9.8-38.4h-10.7
		l-5.3,25.3l-6.6-25.3h-9.9L87.1,37.2z M154.2,19h10.6v-7.1h-10.6V19z M141.6,11.9H131V19h10.6V11.9z M154.2,22.7V35
		c0,5.5-2.7,7.5-6.3,7.5c-3.5,0-6.3-2-6.3-7.5V22.7H131v12.7c0,10.2,5.5,15.7,16.8,15.7c11.4,0,16.9-5.5,16.9-15.6V22.7H154.2z"/>
	<path clip-path="url(#SVGID_2_)" fill-rule="evenodd" clip-rule="evenodd" fill="#CC0000" d="M32.1,50.9v9.3
		C45.4,57.7,55,46.3,55,33.4v-0.6H0v0.6c0,12.9,9.8,24.3,22.8,26.8v-9.3H32.1z"/>
	<polygon clip-path="url(#SVGID_2_)" fill-rule="evenodd" clip-rule="evenodd" fill="#CC0000" points="55,23.5 0,23.5 0,0 22.8,0 
		22.8,9.3 32.1,9.3 32.1,0 55,0 	"/>
</g>
</svg>
